HIERARCHY
ROOT Hips
{
	OFFSET 0.000000 88.474243 0.000000
	CHANNELS 6 Xposition Yposition Zposition Zrotation Yrotation Xrotation 
	JOINT Hips_Spine
	{
		OFFSET 0.000000 0.000000 0.000000
		CHANNELS 3 Zrotation Yrotation Xrotation
		JOINT Spine
		{
			OFFSET 0.005100 8.711998 -0.691000
			CHANNELS 3 Zrotation Yrotation Xrotation
			JOINT Spine1
			{
				OFFSET -0.009200 8.660301 -1.275000
				CHANNELS 3 Zrotation Yrotation Xrotation
				JOINT Spine2
				{
					OFFSET 0.006300 9.852501 -1.857000
					CHANNELS 3 Zrotation Yrotation Xrotation
					JOINT Spine2_Neck
					{
						OFFSET 0.000000 0.000000 0.000000
						CHANNELS 3 Zrotation Yrotation Xrotation
						JOINT Neck
						{
							OFFSET 0.016300 11.420799 -0.263300
							CHANNELS 3 Zrotation Yrotation Xrotation
							End Site #name: Head
							{
								OFFSET -0.019200 9.262405 2.362500
							}
						}
					}
					JOINT Spine2_LeftShoulder
					{
						OFFSET 0.000000 0.000000 0.000000
						CHANNELS 3 Zrotation Yrotation Xrotation
						JOINT LeftShoulder
						{
							OFFSET 5.616900 6.732201 -0.345700
							CHANNELS 3 Zrotation Yrotation Xrotation
							JOINT LeftArm
							{
								OFFSET 10.664888 -0.183372 -2.440700
								CHANNELS 3 Zrotation Yrotation Xrotation
								JOINT LeftForeArm
								{
									OFFSET 27.459126 0.000000 0.000000
									CHANNELS 3 Zrotation Yrotation Xrotation
									End Site #name: LeftHand
									{
										OFFSET 21.306858 0.000000 0.000000
									}
								}
							}
						}
					}
					JOINT Spine2_RightShoulder
					{
						OFFSET 0.000000 0.000000 0.000000
						CHANNELS 3 Zrotation Yrotation Xrotation
						JOINT RightShoulder
						{
							OFFSET -5.580300 6.737503 -0.344400
							CHANNELS 3 Zrotation Yrotation Xrotation
							JOINT RightArm
							{
								OFFSET -10.679335 -0.188484 -2.383900
								CHANNELS 3 Zrotation Yrotation Xrotation
								JOINT RightForeArm
								{
									OFFSET -27.503529 0.000000 0.000000
									CHANNELS 3 Zrotation Yrotation Xrotation
									End Site #name: RightHand
									{
										OFFSET -21.306808 0.000000 0.000000
									}
								}
							}
						}
					}
				}
			}
		}
	}
	JOINT Hips_LeftUpLeg
	{
		OFFSET 0.000000 0.000000 0.000000
		CHANNELS 3 Zrotation Yrotation Xrotation
		JOINT LeftUpLeg
		{
			OFFSET 6.857700 -6.739601 0.312100
			CHANNELS 3 Zrotation Yrotation Xrotation
			JOINT LeftLeg
			{
				OFFSET -0.367590 -34.731552 -4.572400
				CHANNELS 3 Zrotation Yrotation Xrotation
				End Site #name: LeftFoot
				{
					OFFSET 0.367590 -34.656704 -6.067400
				}
			}
		}
	}
	JOINT Hips_RightUpLeg
	{
		OFFSET 0.000000 0.000000 0.000000
		CHANNELS 3 Zrotation Yrotation Xrotation
		JOINT RightUpLeg
		{
			OFFSET -6.876100 -6.733299 0.301000
			CHANNELS 3 Zrotation Yrotation Xrotation
			JOINT RightLeg
			{
				OFFSET 0.347353 -34.795158 -4.515900
				CHANNELS 3 Zrotation Yrotation Xrotation
				End Site #name: RightFoot
				{
					OFFSET -0.347353 -34.589367 -6.070300
				}
			}
		}
	}
}
MOTION
Frames: 14
Frame Time: 0.041667
0.020020 0.023093 -0.023205 -4.525848 -1.330123 -3.584916 0.000000 -0.000000 0.000000 2.506463 2.144331 17.590491 1.004013 1.450724 3.071936 0.000000 0.000000 0.000000 1.035787 1.330599 1.348673 1.036151 -0.291310 6.570662 0.925059 0.449334 3.834681 -9.453464 -6.252934 1.415479 -59.768658 2.261289 11.673874 0.693806 -24.591946 -0.173866 1.635939 0.932138 3.477968 6.600899 -3.950217 0.769175 71.601956 5.276037 34.516586 -0.120829 18.341661 0.841943 0.000000 0.000000 0.000000 7.658078 9.939076 -59.582810 8.036823 -3.824071 59.450685 0.000000 0.000000 0.000000 -5.548479 -6.786078 -46.007755 -0.882349 -1.624293 53.856530 
0.027708 0.053285 -0.105328 -4.619494 -0.421515 -2.442186 0.000000 -0.000000 0.000000 2.231082 0.945236 15.268658 0.708584 0.645143 2.668203 0.000000 0.000000 0.000000 0.952526 0.695427 2.365072 0.773443 -0.631134 5.846126 1.079755 0.792789 3.277063 -7.517056 -2.530409 0.132095 -64.894021 0.956429 5.000911 0.019480 -28.192447 0.902385 0.603721 0.661826 2.911885 7.117434 -4.276970 0.379418 72.844456 8.487075 26.672026 0.194516 21.093723 0.415212 0.000000 0.000000 -0.000000 7.241193 10.838756 -60.136853 7.601621 -2.733435 57.533773 0.000000 0.000000 0.000000 -4.474276 -7.109185 -48.158230 -0.461468 -1.515401 54.252952 
0.027373 0.044994 -0.162333 -4.264234 0.239213 -2.139500 0.000000 0.000000 0.000000 3.206262 1.054948 16.514652 0.545298 0.653971 2.475251 0.000000 0.000000 0.000000 0.713235 0.473338 2.037038 1.278655 -0.200677 5.543970 0.928044 0.754291 2.805431 -7.893531 -2.058370 -0.118211 -63.360393 3.205210 7.228826 -0.003078 -27.809249 0.824388 0.512824 0.733279 2.702922 6.443094 -4.210962 0.165805 72.690744 9.433860 26.025115 0.302481 22.743426 0.047159 -0.000000 0.000000 -0.000000 7.082751 10.497721 -60.454050 7.221352 -2.833655 56.530877 0.000000 0.000000 0.000000 -4.795807 -6.851919 -48.776215 0.169301 -1.193510 54.801012 
0.027458 0.035184 -0.217322 -4.203925 0.494642 -2.128022 0.000000 0.000000 0.000000 3.162774 1.451913 16.874496 0.475889 0.609533 2.742937 0.000000 0.000000 0.000000 0.747971 0.498422 1.875763 1.149414 -0.038162 6.214813 0.820828 0.627602 2.650920 -6.147090 -0.953246 -0.312064 -64.651770 1.512545 4.980102 -0.001849 -27.735936 0.830810 0.550460 0.720835 2.758255 6.301359 -4.538585 0.091342 74.867076 11.249768 24.805710 0.249744 28.069124 -0.117299 -0.000000 0.000000 -0.000000 7.088081 10.526493 -59.605931 7.238200 -2.688102 55.425623 0.000000 0.000000 0.000000 -4.891641 -7.022068 -49.360154 0.684733 -0.975769 55.595127 
0.030975 0.030738 -0.269751 -4.180096 0.703437 -2.173306 0.000000 0.000000 0.000000 3.003910 1.746050 17.340826 0.421581 0.594463 2.873629 0.000000 0.000000 0.000000 0.712658 0.488567 1.918504 1.205819 0.066183 6.760683 0.748602 0.546365 2.657893 -5.656763 -0.664307 -0.373619 -65.008495 -0.040342 2.984682 0.014288 -28.343895 0.810725 0.523433 0.717591 2.961703 6.868311 -4.895160 -0.033650 76.006487 12.766423 24.372238 0.174315 32.343343 -0.234767 -0.000000 0.000000 -0.000000 7.095816 10.670127 -59.016955 7.242904 -2.439616 54.842314 0.000000 0.000000 0.000000 -5.088690 -7.116869 -49.815389 0.850776 -0.980963 56.262045 
0.035534 0.030985 -0.318556 -4.195576 0.704343 -2.224075 0.000000 0.000000 0.000000 2.862140 1.745195 17.638366 0.391451 0.569058 3.003214 0.000000 0.000000 0.000000 0.700616 0.460635 2.103647 1.273407 0.047062 7.053131 0.740139 0.503881 2.793575 -5.488530 -0.425418 -0.413585 -64.851799 -0.825610 2.592129 0.041205 -28.944486 0.749751 0.497071 0.696987 3.142742 7.435226 -4.887507 -0.062945 75.898324 14.197853 23.353214 0.108221 34.869011 -0.286022 -0.000000 0.000000 -0.000000 7.150039 10.909692 -58.674050 7.217963 -2.377931 54.742761 0.000000 0.000000 0.000000 -5.245763 -7.098073 -49.896307 0.910536 -1.000139 56.580975 
0.040007 0.035505 -0.364313 -4.212423 0.627088 -2.243773 0.000000 0.000000 0.000000 2.759178 1.657366 17.853101 0.379606 0.543796 3.124292 0.000000 0.000000 0.000000 0.704555 0.435821 2.257462 1.259561 0.020666 7.227772 0.752318 0.489787 2.902742 -5.395685 -0.114760 -0.472221 -64.539637 -1.186719 3.026796 0.063887 -29.632567 0.745722 0.494997 0.676740 3.263638 7.783719 -4.802125 -0.036430 75.192037 15.029822 22.284523 0.097477 35.592898 -0.277845 -0.000000 0.000000 -0.000000 7.201759 11.030580 -58.486481 7.198924 -2.400404 54.790568 0.000000 0.000000 0.000000 -5.299595 -7.090791 -49.743090 0.935206 -0.996110 56.524250 
0.042154 0.041899 -0.407896 -4.224592 0.588802 -2.221244 0.000000 0.000000 0.000000 2.649247 1.612214 17.916822 0.362657 0.523087 3.200233 0.000000 0.000000 0.000000 0.700463 0.417437 2.365222 1.223195 0.017913 7.325092 0.758506 0.489126 2.996855 -5.318404 0.142359 -0.510675 -64.157434 -1.246432 3.769492 0.071157 -30.522522 0.751636 0.486740 0.672386 3.312993 7.901037 -4.681402 0.011404 74.565860 15.220426 21.421942 0.112349 35.455669 -0.257040 -0.000000 0.000000 -0.000000 7.222685 11.040030 -58.441634 7.185052 -2.434484 54.838906 0.000000 0.000000 0.000000 -5.298985 -7.082009 -49.545375 0.922272 -0.999440 56.357932 
0.039124 0.048753 -0.450357 -4.239537 0.575689 -2.176698 0.000000 0.000000 0.000000 2.549404 1.571958 17.971789 0.346987 0.516833 3.250565 0.000000 0.000000 0.000000 0.687561 0.409116 2.447597 1.179557 0.001214 7.432271 0.750616 0.498475 3.063241 -5.160450 0.394687 -0.556970 -63.905032 -1.023120 4.526160 0.066304 -31.392662 0.761304 0.466998 0.672814 3.334400 7.854184 -4.585307 0.064277 74.329237 15.116561 20.804720 0.131547 35.329158 -0.223814 -0.000000 0.000000 -0.000000 7.225820 11.023929 -58.492879 7.156943 -2.483624 54.904932 0.000000 0.000000 0.000000 -5.276921 -7.081847 -49.459743 0.927169 -0.994682 56.260498 
0.031774 0.055694 -0.491695 -4.252171 0.582129 -2.138276 0.000000 0.000000 0.000000 2.501362 1.560310 18.088359 0.330756 0.517960 3.285622 0.000000 0.000000 0.000000 0.668118 0.406767 2.488049 1.132967 -0.015919 7.520799 0.736879 0.507295 3.098776 -5.022323 0.669234 -0.623754 -63.802568 -0.798681 5.157999 0.063345 -32.250326 0.773801 0.441299 0.676286 3.348999 7.719142 -4.621668 0.103098 74.425626 14.891374 20.328922 0.142103 35.434888 -0.196152 -0.000000 0.000000 -0.000000 7.229481 10.983042 -58.567700 7.119694 -2.537893 54.951818 0.000000 0.000000 0.000000 -5.249136 -7.089896 -49.491451 0.929147 -0.982839 56.282149 
0.020784 0.062879 -0.531990 -4.261804 0.600792 -2.118531 0.000000 0.000000 0.000000 2.500878 1.533319 18.236133 0.313338 0.519554 3.320230 0.000000 0.000000 0.000000 0.646585 0.404394 2.509357 1.095767 -0.020080 7.593013 0.720238 0.512537 3.121436 -4.872456 0.945253 -0.698291 -63.847051 -0.662262 5.627799 0.058262 -32.934964 0.780168 0.412567 0.679649 3.368574 7.572410 -4.759513 0.129510 74.700437 14.566757 20.029232 0.142020 35.810444 -0.176389 -0.000000 0.000000 -0.000000 7.236368 10.942627 -58.648334 7.083522 -2.581660 55.000110 0.000000 0.000000 0.000000 -5.228569 -7.099871 -49.580114 0.924160 -0.972153 56.375343 
0.006950 0.070588 -0.571516 -4.267935 0.629287 -2.113093 0.000000 0.000000 0.000000 2.537747 1.488764 18.454767 0.297003 0.518965 3.363516 0.000000 0.000000 0.000000 0.626912 0.403827 2.525414 1.072874 -0.018946 7.666360 0.705297 0.514447 3.138742 -4.722978 1.218069 -0.773189 -63.990823 -0.583025 6.052128 0.055233 -33.477606 0.786783 0.388514 0.681583 3.397032 7.439167 -4.958100 0.143747 75.011211 14.234690 19.692550 0.141591 36.948886 -0.147224 -0.000000 0.000000 -0.000000 7.239652 10.904807 -58.735944 7.054991 -2.615869 55.064296 0.000000 0.000000 0.000000 -5.215901 -7.111881 -49.685592 0.919631 -0.965929 56.491437 
-0.008990 0.078740 -0.610588 -4.270940 0.659599 -2.119301 0.000000 0.000000 0.000000 2.593429 1.430928 18.683838 0.283598 0.514070 3.411443 0.000000 0.000000 0.000000 0.609202 0.402067 2.540468 1.065534 -0.027902 7.771330 0.695157 0.513506 3.158313 -4.597688 1.468540 -0.839166 -64.167445 -0.539470 6.418982 0.056353 -33.928139 0.791499 0.366910 0.682223 3.429109 7.321105 -5.170250 0.149402 75.178142 13.992938 19.015622 0.152838 39.234851 -0.111448 -0.000000 0.000000 -0.000000 7.240454 10.877462 -58.818465 7.031711 -2.645548 55.134538 0.000000 0.000000 0.000000 -5.208387 -7.123460 -49.788273 0.911943 -0.961233 56.612236 
-0.026477 0.087401 -0.649362 -4.275164 0.694119 -2.131978 0.000000 0.000000 0.000000 2.630852 1.369181 18.853253 0.270906 0.507437 3.457235 0.000000 0.000000 0.000000 0.593175 0.399244 2.556964 1.068497 -0.046836 7.898807 0.687124 0.513613 3.178577 -4.465998 1.711666 -0.899390 -64.358054 -0.475344 6.807766 0.056988 -34.291899 0.798970 0.345548 0.683032 3.460773 7.189086 -5.330351 0.158724 75.055941 13.786176 17.753266 0.155137 42.647161 -0.065135 -0.000000 0.000000 -0.000000 7.238434 10.850495 -58.904423 7.011438 -2.670278 55.217862 0.000000 0.000000 0.000000 -5.200253 -7.137332 -49.886058 0.905161 -0.957643 56.724246 
